<svg xmlns="http://www.w3.org/2000/svg" viewBox="202.27 175 63.1 61">
  <path d="M 247.513 187.518 L 235.712 175.612 C 235.516 175.417 235.283 175.263 235.027 175.158 C 234.77 175.053 234.496 175 234.219 175.002 C 233.667 175.004 233.138 175.223 232.747 175.612 L 202.878 205.376 C 202.486 205.77 202.266 206.303 202.266 206.859 C 202.266 207.414 202.486 207.948 202.878 208.342 L 214.783 220.247 C 214.98 220.442 215.213 220.596 215.469 220.701 C 215.725 220.806 216 220.859 216.277 220.857 C 216.828 220.855 217.357 220.636 217.749 220.247 L 223.702 214.294 L 241.56 196.436 L 247.513 190.483 C 247.905 190.089 248.125 189.556 248.125 189 C 248.125 188.445 247.905 187.912 247.513 187.518 Z M 240.067 191.977 L 238.573 190.483 C 238.179 190.092 237.646 189.872 237.09 189.872 C 236.535 189.872 236.001 190.092 235.607 190.483 C 235.41 190.679 235.254 190.912 235.147 191.168 C 235.04 191.424 234.985 191.699 234.985 191.977 C 234.985 192.255 235.04 192.529 235.147 192.786 C 235.254 193.042 235.41 193.275 235.607 193.47 L 237.101 194.964 L 234.114 197.93 L 229.655 193.47 C 229.252 193.126 228.735 192.946 228.205 192.966 C 227.676 192.987 227.174 193.206 226.799 193.581 C 226.424 193.955 226.205 194.457 226.184 194.987 C 226.164 195.516 226.344 196.034 226.689 196.436 L 231.148 200.895 L 228.161 203.882 L 226.689 202.389 C 226.293 201.993 225.755 201.77 225.195 201.77 C 224.635 201.77 224.098 201.993 223.702 202.389 C 223.306 202.785 223.083 203.322 223.083 203.882 C 223.083 204.443 223.306 204.98 223.702 205.376 L 225.195 206.848 L 222.229 209.835 L 217.749 205.376 C 217.355 204.984 216.822 204.764 216.266 204.764 C 215.71 204.764 215.177 204.984 214.783 205.376 C 214.391 205.77 214.172 206.303 214.172 206.859 C 214.172 207.414 214.391 207.948 214.783 208.342 L 219.242 212.801 L 216.277 215.788 L 207.337 206.848 L 234.114 180.071 L 243.054 189.011 L 240.067 191.977 Z" fill="#FF3343" style=""/>
  <path d="M 225.404 236.002 L 263.266 236.002 C 263.824 236.002 264.359 235.78 264.753 235.386 C 265.148 234.991 265.37 234.456 265.37 233.899 L 265.37 196.036 C 265.37 195.479 265.148 194.944 264.753 194.549 C 264.359 194.155 263.824 193.933 263.266 193.933 L 250.645 193.933 C 250.088 193.933 249.552 194.155 249.158 194.549 C 248.764 194.944 248.542 195.479 248.542 196.036 L 248.542 219.174 L 225.404 219.174 C 224.846 219.174 224.311 219.396 223.917 219.79 C 223.522 220.185 223.301 220.72 223.301 221.278 L 223.301 233.899 C 223.301 234.456 223.522 234.991 223.917 235.386 C 224.311 235.78 224.846 236.002 225.404 236.002 Z M 227.507 223.381 L 231.714 223.381 L 231.714 225.485 C 231.714 226.043 231.936 226.578 232.33 226.972 C 232.725 227.367 233.26 227.588 233.818 227.588 C 234.376 227.588 234.911 227.367 235.305 226.972 C 235.7 226.578 235.921 226.043 235.921 225.485 L 235.921 223.381 L 240.128 223.381 L 240.128 225.485 C 240.128 226.043 240.35 226.578 240.744 226.972 C 241.139 227.367 241.674 227.588 242.232 227.588 C 242.789 227.588 243.324 227.367 243.719 226.972 C 244.113 226.578 244.335 226.043 244.335 225.485 L 244.335 223.381 L 248.542 223.381 L 248.542 225.485 C 248.542 226.043 248.764 226.578 249.158 226.972 C 249.552 227.367 250.088 227.588 250.645 227.588 C 251.203 227.588 251.738 227.367 252.133 226.972 C 252.527 226.578 252.749 226.043 252.749 225.485 L 252.749 223.381 L 254.852 223.381 C 255.41 223.381 255.945 223.16 256.34 222.765 C 256.734 222.371 256.956 221.836 256.956 221.278 C 256.956 220.72 256.734 220.185 256.34 219.79 C 255.945 219.396 255.41 219.174 254.852 219.174 L 252.749 219.174 L 252.749 214.968 L 254.852 214.968 C 255.41 214.968 255.945 214.746 256.34 214.351 C 256.734 213.957 256.956 213.422 256.956 212.864 C 256.956 212.306 256.734 211.771 256.34 211.377 C 255.945 210.982 255.41 210.761 254.852 210.761 L 252.749 210.761 L 252.749 206.554 L 254.852 206.554 C 255.41 206.554 255.945 206.332 256.34 205.938 C 256.734 205.543 256.956 205.008 256.956 204.45 C 256.956 203.892 256.734 203.357 256.34 202.963 C 255.945 202.568 255.41 202.347 254.852 202.347 L 252.749 202.347 L 252.749 198.14 L 261.163 198.14 L 261.163 231.795 L 227.507 231.795 L 227.507 223.381 Z" fill="#FF3343" style=""/>
</svg>