<svg xmlns="http://www.w3.org/2000/svg" viewBox="174.62 88.4 65 74.02">
  <path d="M 222.75 133.832 C 222.616 133.976 222.497 134.134 222.395 134.303 C 222.278 134.453 222.188 134.622 222.129 134.803 C 222.039 134.979 221.979 135.168 221.952 135.363 C 221.832 135.927 221.894 136.514 222.129 137.041 C 222.262 137.406 222.473 137.738 222.749 138.013 C 223.025 138.288 223.358 138.499 223.725 138.631 C 224.075 138.796 224.46 138.877 224.847 138.867 C 225.231 138.871 225.613 138.801 225.97 138.66 C 226.323 138.49 226.651 138.272 226.945 138.013 C 227.219 137.738 227.435 137.411 227.583 137.053 C 227.73 136.694 227.804 136.31 227.802 135.922 C 227.812 135.536 227.731 135.153 227.565 134.803 C 227.416 134.446 227.206 134.118 226.945 133.832 C 226.669 133.559 226.342 133.343 225.982 133.196 C 225.622 133.05 225.236 132.975 224.847 132.978 C 224.461 132.982 224.08 133.062 223.725 133.213 C 223.362 133.353 223.031 133.564 222.75 133.832 Z M 210.577 146.08 C 210.46 146.231 210.37 146.4 210.311 146.581 C 210.2 146.753 210.12 146.942 210.075 147.14 C 209.986 147.518 209.986 147.911 210.075 148.289 L 210.252 148.819 L 210.518 149.349 L 210.872 149.79 C 211.453 150.342 212.226 150.649 213.029 150.644 C 213.418 150.647 213.803 150.572 214.163 150.426 C 214.523 150.279 214.851 150.063 215.127 149.79 C 215.388 149.504 215.598 149.176 215.747 148.819 C 215.931 148.373 216.002 147.888 215.954 147.409 C 215.907 146.929 215.741 146.468 215.473 146.067 C 215.204 145.665 214.841 145.336 214.415 145.107 C 213.989 144.879 213.513 144.758 213.029 144.755 C 212.247 144.766 211.498 145.071 210.931 145.609 L 210.577 146.08 Z M 222.75 145.609 C 222.481 145.889 222.27 146.22 222.129 146.581 C 221.881 147.114 221.799 147.709 221.893 148.289 L 222.07 148.819 C 222.135 149.006 222.224 149.185 222.336 149.349 C 222.445 149.503 222.563 149.651 222.69 149.79 C 222.971 150.059 223.303 150.269 223.665 150.409 C 224.019 150.565 224.402 150.645 224.788 150.645 C 225.175 150.645 225.557 150.565 225.911 150.409 C 226.269 150.26 226.599 150.051 226.886 149.79 C 227.17 149.52 227.398 149.196 227.555 148.837 C 227.713 148.478 227.796 148.092 227.802 147.7 C 227.812 147.314 227.731 146.93 227.565 146.581 C 227.416 146.224 227.206 145.896 226.945 145.609 C 226.658 145.349 226.328 145.14 225.97 144.991 C 225.616 144.835 225.234 144.755 224.847 144.755 C 224.461 144.755 224.078 144.835 223.725 144.991 C 223.362 145.131 223.031 145.341 222.75 145.609 Z M 210.311 137.041 C 210.452 137.402 210.662 137.733 210.931 138.013 C 211.498 138.551 212.247 138.856 213.029 138.867 C 213.513 138.864 213.989 138.743 214.415 138.515 C 214.841 138.286 215.204 137.957 215.473 137.555 C 215.741 137.154 215.907 136.693 215.954 136.214 C 216.002 135.734 215.931 135.249 215.747 134.803 C 215.598 134.446 215.388 134.118 215.127 133.832 C 214.851 133.559 214.523 133.343 214.163 133.196 C 213.803 133.05 213.418 132.975 213.029 132.978 C 212.247 132.989 211.498 133.294 210.931 133.832 C 210.521 134.246 210.244 134.771 210.133 135.343 C 210.023 135.914 210.085 136.505 210.311 137.041 Z M 222.75 122.054 C 222.489 122.34 222.279 122.669 222.129 123.025 C 221.903 123.562 221.841 124.153 221.951 124.724 C 222.062 125.295 222.34 125.821 222.75 126.235 C 223.031 126.503 223.362 126.713 223.725 126.853 C 224.078 127.009 224.461 127.09 224.847 127.09 C 225.234 127.09 225.616 127.009 225.97 126.853 C 226.328 126.704 226.658 126.495 226.945 126.235 C 227.219 125.96 227.435 125.634 227.583 125.275 C 227.73 124.916 227.804 124.532 227.802 124.144 C 227.812 123.758 227.731 123.375 227.565 123.025 C 227.416 122.669 227.206 122.34 226.945 122.054 C 226.53 121.645 226.002 121.369 225.429 121.258 C 224.856 121.148 224.263 121.21 223.725 121.435 C 223.362 121.576 223.031 121.786 222.75 122.054 Z M 186.438 124.144 L 186.438 147.7 C 186.438 148.481 186.75 149.23 187.304 149.782 C 187.858 150.334 188.609 150.644 189.393 150.644 L 201.211 150.644 C 201.995 150.644 202.746 150.334 203.3 149.782 C 203.854 149.23 204.165 148.481 204.165 147.7 L 204.165 124.144 C 204.165 123.363 203.854 122.615 203.3 122.062 C 202.746 121.51 201.995 121.2 201.211 121.2 L 189.393 121.2 C 188.609 121.2 187.858 121.51 187.304 122.062 C 186.75 122.615 186.438 123.363 186.438 124.144 Z M 198.256 127.089 L 198.256 144.755 L 192.347 144.755 L 192.347 127.089 L 198.256 127.089 Z M 174.62 118.255 L 174.62 153.589 C 174.62 155.932 175.554 158.178 177.216 159.835 C 178.878 161.492 181.133 162.422 183.484 162.422 L 230.756 162.422 C 233.107 162.422 235.362 161.492 237.024 159.835 C 238.686 158.178 239.62 155.932 239.62 153.589 L 239.62 118.255 C 239.62 115.913 238.686 113.666 237.024 112.009 C 235.362 110.353 233.107 109.422 230.756 109.422 L 183.484 109.422 C 181.133 109.422 178.878 110.353 177.216 112.009 C 175.554 113.666 174.62 115.913 174.62 118.255 Z M 230.756 115.311 C 231.54 115.311 232.291 115.621 232.846 116.173 C 233.4 116.726 233.711 117.475 233.711 118.255 L 233.711 153.589 C 233.711 154.37 233.4 155.119 232.846 155.671 C 232.291 156.223 231.54 156.533 230.756 156.533 L 183.484 156.533 C 182.7 156.533 181.949 156.223 181.395 155.671 C 180.84 155.119 180.529 154.37 180.529 153.589 L 180.529 118.255 C 180.529 117.475 180.84 116.726 181.395 116.173 C 181.949 115.621 182.7 115.311 183.484 115.311 L 230.756 115.311 Z M 210.577 122.525 C 210.46 122.675 210.37 122.845 210.311 123.025 C 210.221 123.201 210.161 123.39 210.134 123.585 C 210.045 123.963 210.045 124.356 210.134 124.733 L 210.311 125.263 L 210.577 125.793 L 210.931 126.235 C 211.498 126.773 212.247 127.078 213.029 127.089 C 213.513 127.086 213.989 126.966 214.415 126.737 C 214.841 126.508 215.204 126.179 215.473 125.778 C 215.741 125.376 215.907 124.916 215.954 124.436 C 216.002 123.956 215.931 123.472 215.747 123.025 C 215.598 122.669 215.388 122.34 215.127 122.054 C 214.851 121.781 214.523 121.565 214.163 121.419 C 213.803 121.272 213.418 121.198 213.029 121.2 C 212.247 121.211 211.498 121.516 210.931 122.054 L 210.577 122.525 Z" fill="#FF3343"/>
  <path d="M 185.141 89.434 C 184.984 89.594 184.86 89.783 184.776 89.991 C 184.692 90.198 184.65 90.42 184.652 90.644 L 184.79 100.849 C 184.794 101.073 184.842 101.294 184.932 101.499 C 185.022 101.705 185.151 101.89 185.312 102.045 C 185.472 102.203 185.661 102.327 185.869 102.411 C 186.076 102.495 186.298 102.537 186.522 102.535 L 193.333 102.442 L 219.639 102.085 C 219.863 102.082 220.084 102.033 220.289 101.944 C 220.494 101.854 220.68 101.725 220.835 101.564 L 225.868 96.392 C 226.183 96.069 226.357 95.634 226.351 95.182 C 226.344 94.731 226.159 94.3 225.836 93.986 L 220.664 88.953 C 220.503 88.777 220.306 88.638 220.087 88.543 C 219.868 88.449 219.632 88.401 219.393 88.404 L 193.161 88.832 L 186.397 88.852 C 186.171 88.861 185.948 88.909 185.737 88.993 C 185.631 89.079 185.535 89.177 185.452 89.286 C 185.391 89.337 185.335 89.394 185.286 89.456 L 185.141 89.434 Z M 218.79 91.879 L 222.242 95.238 L 218.883 98.69 L 194.984 99.014 L 194.892 92.203 L 218.79 91.879 Z M 191.498 92.249 L 191.59 99.06 L 188.185 99.094 L 188.093 92.307 L 191.498 92.249 Z" fill="#FF3343"/>
</svg>