<svg xmlns="http://www.w3.org/2000/svg" viewBox="172.28 146.69 80.75 53.62">
  <path d="M 181.432 158.13 C 202.257 158.587 223.056 158.587 243.83 158.13 C 256.066 157.901 256.142 146.466 243.83 146.694 C 223.107 147.091 202.307 147.091 181.432 146.694 C 169.196 146.42 169.272 157.856 181.432 158.13 Z" style="fill: #C91B28;"/>
  <path d="M 199.445 178.211 L 236.686 178.211 C 243.999 178.211 248.57 173.446 244.913 169.634 C 243.216 167.865 240.08 166.775 236.686 166.775 L 199.445 166.775 C 192.131 166.775 187.56 171.54 191.217 175.352 C 192.914 177.121 196.05 178.211 199.445 178.211 Z" style="fill: #C91B28;"/>
  <path d="M 217.989 199.985 L 238.358 200.305 C 245.671 200.305 250.242 195.54 246.585 191.728 C 244.888 189.959 241.752 188.869 238.358 188.869 L 217.989 188.549 C 210.676 188.549 206.105 193.314 209.762 197.126 C 211.459 198.895 214.595 199.985 217.989 199.985 Z" style="fill: #C91B28;"/>
</svg>
